<svg width="30" height="30" viewBox="0 0 30 30" fill="none" xmlns="http://www.w3.org/2000/svg">
<g clip-path="url(#clip0_704_8219)">
<path d="M20.5624 18.8176C23.3757 18.7679 23.9948 14.8978 21.3401 13.9761L18.2749 17.3003C18.6574 18.2009 19.5591 18.8176 20.5624 18.8176Z" fill="white"/>
<path d="M29.6413 13.7949C29.2473 11.4307 28.1396 9.60589 26.4198 8.46646C25.6187 9.33595 23.4116 11.7287 22.5786 12.6324C23.9188 13.3588 24.7767 14.7653 24.7767 16.3346C24.7861 19.9716 20.3972 21.9031 17.7226 19.4471C17.4676 20.0113 17.1099 20.5306 16.6593 20.9811C14.8735 22.9173 9.3416 23.3853 6.98024 23.3165C6.91124 20.9493 7.38121 15.4201 9.3157 13.6374C10.3028 12.6509 11.5905 12.1449 12.8868 12.1201C14.3055 10.8076 16.2728 8.98708 17.6857 7.67953C15.7232 8.19669 12.8486 9.56585 11.9718 8.27319C11.5615 7.30482 13.4269 5.05464 11.9551 3.16624C10.7489 1.65175 8.0494 1.93624 6.52389 3.0122C-0.903684 8.14044 -1.89686 19.4076 4.58733 25.6756C12.5251 33.6744 26.3719 30.0506 29.414 19.2111C29.5792 18.5289 30.052 16.2925 29.6413 13.7949Z" fill="white"/>
<path d="M16.6592 13.6376C17.1415 14.1199 17.517 14.6801 17.7743 15.2899C18.7568 14.2259 23.9441 8.59805 24.8053 7.6647L29.4109 2.66967C29.914 2.1239 29.9273 1.3162 29.4415 0.829853C28.9546 0.343505 28.1457 0.357351 27.6 0.862161L20.8644 7.09585C19.4019 8.44891 16.4929 11.142 15.0005 12.523C15.604 12.7757 16.1688 13.1472 16.6592 13.6376Z" fill="white"/>
<path d="M14.5119 14.2C13.1979 13.5605 11.6054 13.798 10.5398 14.86C9.43912 15.8331 8.81419 19.5367 8.75073 21.5454C10.7652 21.4799 14.4599 20.8586 15.4356 19.7563C16.0898 19.1021 16.4498 18.2327 16.4498 17.3084C16.4496 16.3829 16.0892 15.5134 15.4356 14.8605V14.86C15.1587 14.5825 14.846 14.3626 14.5119 14.2Z" fill="white"/>
</g>
<defs>
<clipPath id="clip0_704_8219">
<rect width="29.5302" height="29.5302" fill="white" transform="translate(0.277588 0.474121)"/>
</clipPath>
</defs>
</svg>
